<?xml version="1.0" encoding="UTF-8"?>
<svg id="Layer_1" xmlns="http://www.w3.org/2000/svg" version="1.1" viewBox="0 0 1792 2024.4">
  <!-- Generator: Adobe Illustrator 30.5.1, SVG Export Plug-In . SVG Version: 2.1.4 Build 3)  -->
  <defs>
    <style>
      .st0 {
        fill: #b5502f;
      }

      .st1 {
        fill: #1c1815;
      }

      .st2 {
        fill: none;
        stroke: #1c1815;
        stroke-linecap: round;
        stroke-miterlimit: 10;
        stroke-width: 6px;
      }
    </style>
  </defs>
  <g>
    <g>
      <path class="st1" d="M965.2,1048.3c-25.8,6.5-53-12.1-48.8-16.7,3.8-4.1,18.3,14.4,41.5,11.9,18-2,30.5-15.7,28.3-33.3l-4.8-38.5c-2.3-18.1-3.4-35.4-1.3-53.6,3.5-30.6,22-55.8,51.5-66.3,55.3-19.6,109.3,10.7,105.5,18.7-.8,1.6-3.4,1.2-5.2,0-28.7-19.6-64-24.6-96.5-13.4-53.7,18.6-53.5,67.3-47.7,117.2l4.4,38.1c2,16.9-9.2,31.6-26.9,36h0Z"/>
      <path class="st1" d="M869.5,1124.5c-.4-2.3-.5-3.7-.3-4.2.3-.9,2.5-1.5,4.1-.6,51.9,27.2,114.4,30.8,154.6-13.3.8-.8,4-.4,4.6.1.5.5.4,1.1.6,3.4-42.9,46.8-108.7,44.4-163.5,14.7h0Z"/>
      <path class="st1" d="M870.3,873.8c-50.2-24.7-103.4-6.6-141.9,31.5-1.7,1-4.5-1.4-4.1-3.8,38-40.9,96.6-58,148.2-33.7,2.1,1,2.7,2.3,2.8,3.4.2,2.8-2.1,4-5,2.6h0Z"/>
      <path class="st1" d="M802,977.5c-26.9-2.3-46.4-25-40.9-27.5s13.7,18.3,40.8,21.4c19.8,2.2,37.7-7.5,46.5-25,1.1-2.2,3.1-2.5,4.4-1.8,6.3,3.1-13.2,36.1-50.8,32.9h0Z"/>
      <path class="st1" d="M1078.8,962.4c-32.7,2.3-51.6-22.6-45.7-26.1,3.7-2.2,15.6,23.4,45.5,20.3,14.2-1.5,27.3-11.2,33.8-25.3h3.9c5.2,0-9,29.2-37.4,31.2h0Z"/>
    </g>
    <path class="st1" d="M1792,1978.4v5.8l-413.8-.5c-38.8,31.8-87.9,45.6-137.2,39.3-24.8-3.2-45.1-14-67-24.8l-43.4-14.7c-24.1-8.2-56.9,13.1-95,7.1-18.9-3-36.5-10.2-48.8-25-.8-1.3,1.4-4.7,3.8-4.7,26.2,29,63.2,28.3,100.3,18.8,19.1-6.3,35.5-3.5,58,1.3-21.9-22.1-39.2-42.3-53.9-67.9-21.2-36.7-38.4-74.2-53.4-114.7-20.1-2-39.1-2.6-59.1,1.2-1,.2-2-3.3-1.4-5.5,18-4.4,36.9-3.2,58-2.1-33.8-95.5-54-193-62.4-293.4-.9-11.2,10.6-17.7,20.9-20.3-16.2-64.8-31.7-126.9,9.6-185.1l-57.3,10.5c-87.3,6.9-171.6-22.7-236.2-82.7-35.4,2.9-67.3,13-101.3,23.6-66.5,20.8-125.8,60.8-164,119.9-70,108.2-107.3,237.9-121.2,365.4-6.5,59.9-4.2,122.7,16.3,178.6,18.9,51.7,72.2,78.9,125,87.4,34.8,5.6,68,7.9,103.8,8.6,108.9,2.2,216.1-1.8,324.4-11l59.3-5c4.5-.4,10.1-1.9,12.5-6,6.8-11.3,9.3-24.1,9-37.1l-2.1-88.1-7.4-58.7c-1-8-6-11.3-14.1-13.2-92.6-21.3-185.2-35.6-279.8-47.3l-105-10.3c-25.2,33-88.5,39.4-92.2,20.8-.8-3.8,1.3-8.2,4.9-10.6,23-15.6,56.6-15.9,85.2-16.2l16.9-64c8.8-33.3,38.3-143.1,58.9-141.6,8.2.6,7,16.1,4.2,31.4l-17.5,64.2c-11,40.1-30.5,75.5-54.6,110.2l149.1,16.6c79.4,8.8,156.2,23.7,233.8,41.6,9.3,2.1,13.8,7.3,15.9,16.3,9,38.8,12.5,119.6,8.7,160.3-2,22-7.7,36.1-27.6,37.7l-61.1,5c-107.5,8.9-213.7,12.9-321.4,11.2l-60.7-2.8-511.6-.3v-7.4c3.7,1.1,6.9,1.3,12.4,1.3l437.3-.2c2.9-.6,2-3.3.5-3.1-55.4-14.1-98.3-41-115.7-96.6-11.9-38.2-16.9-76.8-16.3-117.6,1.1-70.6,13.4-138.3,31.3-206.6,20.9-79.6,52.8-153.3,97.3-222.5,34.5-47.4,80.7-84.8,135.5-106,41.1-15.9,81.5-27.4,125.2-34.1-35.7-36.2-60.9-76.5-78.9-123-30.5,13.7-65.4,10.8-89.8-10.3-25.5-22.1-36.7-54.6-30.3-87.1,6.5-29.3,31.3-48.1,62.2-45.5-11.9-25.2-17.6-49.2-22-75.3-8.1-46.8-7-93.1,6.5-138.7,14.2-41.2,40.9-76,79.6-95.9l35.2-13.2c39-95.6,142.3-126.1,240-126.3,76.3-.2,149.2,22.4,209.5,68.8,44.4,34.1,76.7,77,96.3,129.7,16.7,45,25.7,91.5,26.9,139.8.6,23.5-4,44.8-7.3,69.8,19.4-10.6,42.7-8,53.4,11.5,19.3,35.2,13.3,80.3-14.7,108.5-14.3,14.4-32.6,20.6-52.6,14.8l-5.5,30c12.7,7.1,16,21,21,33,5.9,3.4,16.1,6,18.7,14.8,26.3,49.6,14.3,112.6-21.2,158.3,62.3,30.7,96.3,85.2,123.9,146.9,43.5,97.1,66.5,202.8,81,308.4,7.1,58.9,4.2,116.2-13.1,172.5-8.3,27.2-21.7,50.4-41.3,71.4l406.9.3h0ZM863.3,729.2h-1.3s1.3,0,1.3,0h2.7s-1.3,0-1.3,0h-1.3ZM1221.8,1036.6c18.2,6.1,36.8-.4,50.5-15.6,36.6-40.7,23.3-110.8-11.3-113.5-11.4-.9-22.1,4.5-28.8,13.9-1.8,2.4-4.4,4.1-7.4,4.5,0,0-.1,0-.2,0-2,.3-4,.1-5.9-.7-14.9-6.4-24.7-37.6-30.3-57.4l-20.7-73c-1-3.6-2.4-7.1-4.9-8.7-2.2-1.4-6.9-2.5-10.3-1.4-32.9,10.4-65.8,13.5-100.7,9.6-64.6-7.1-124.8-28.3-180.2-61.9-2-1.2-3.7-1.7-6.6.8,6.3,10.9,9.7,24.5,5.1,37.2-3.4,9.3-12.7,14-22.3,15.6-45,3.8-92.1-23.5-129.5-49.2-4.1,74.4-20.7,156.7-62,215.7-14.8,21.2-36.8,38.8-54.6,21.9-8.3-7.9-17.9-16-29.8-18.3-27-5.3-50.8,12.9-57.2,39.3-6.9,32.7,6.3,66.8,34.1,86,25.2,17.4,55.3,16.2,83.4,2.8,36,98.3,111.4,175.7,211,203,57,15.7,118.1,17.6,173-5.7l46.1-30.3c16.7-7,31-20,40-34.4,19.6-31.5,6.7-97.5,36.7-97.2,6.5,0,10.8,3.4,14.8,9.6,1.4-22.9,7.2-45.9,24.9-45,6,.3,8.9,4.1,14.8,9.2,1.1-11.8,8.8-17,16.7-21.7l7.2-36.2,4.3,1h0ZM1015.9,1293.2c-44.5,54-29.2,118.4-12.7,182.6,49.1-16.6,95.9-29.9,146.6-36.7l-11.1-35.4c-3.9-20.1,1.2-40.5,16.2-54.8l62.3-59.3c41.3-39.4,60.9-109.6,34.4-164.8-2.5-5.1-5.5-10-13.3-11.7,3.6,38.8.2,77.2-13.4,113.9-1,2.6-1.8,3.5-3.9,3.9-.9.2-3.2-1-2.5-2.7,33.5-93.4,5.3-168-14-145.6-8.3,9.7-7.4,20.5-5,32.1,8.1,39.3,1.7,79.1-12.7,116.2-.7,1.9-4.1,1.1-4.6,0-2.3-5.2,24.8-53.2,11.3-117.7-1.8-8.5-4.8-17.8-12.3-22.2-15.8-9.3-23.5,26.8-21.4,57.4,2.1,31-1.7,61.2-14.3,89.3l-2.6,2.9c-.6.6-4.4-.9-3.7-2.4,11.3-26.8,17.3-54.6,15.3-83.8-1.1-15.9-7.7-30.8-17.2-29.2-12.4,2-16,35.5-18,56.6-3,32.1-19.8,56.8-48.2,72-20.1,10.7-39.1,21.8-55.2,39.6h0ZM992.1,1486.6c-7.1,2.7-10.3,9.2-9.6,15.8,7.8,78.2,21.2,154.2,43.5,229.6,22,74.2,63.1,182.7,117.8,234.4,58.8,55.6,133.6,68.9,205.8,29.5,31.9-17.4,54.3-44.9,66.9-79.7,19.7-54.4,24.4-111.9,18.1-170.1-13.1-120.5-53.8-293.1-122.6-391.9-21-30.1-47.9-54.6-81.5-70l-66.3,64c-13.5,13.1-22.8,28.9-20.7,48.1,2.4,15.1,7.1,29.3,13.4,42.9,9.9,2.8,17.4,9,22.4,18.2l92.5,168.9c20.3,37.1,77.4,152.2,53.3,174.1-9,8.2-25.2-11.5-30.6-26.4l-29.2-81.1c-17.3-58.4-40.7-112.6-69.4-166.3l-43.8-81.9c-55.2,7.9-107.8,22.4-160,42h0ZM1163.4,1447.9c-2.1-.2-2.8,2.2-.9,3.1l.9-3.1ZM1165.4,1449.9l-2.3,2.7,41.4,77.2c26.1,48.6,44.9,98.5,63.2,150.6l31.1,89c4,11.3,10.5,21.6,21,28.3,5.2-4.9,5.7-11.2,5.3-17.3-2.8-43-40.1-118-63.2-160.2l-84.8-154.8c-3.3-5.9-8-11.8-11.7-15.5h0ZM579.3,1703.8c20.3-30,35.5-60.2,44.5-93.8l18.2-67.8c1.8-6.7,2.8-13.6-.4-20.9-9.1,9.9-13.9,21.3-19,33.7-14.4,35.1-25.3,70.8-33.9,107.9l-9.5,40.9h0ZM560.4,1728.2c-25.7-2.8-77.1,7-77.2,19,0,10.5,53.3,8.5,77.2-19ZM1149,1980.2l-1,1,1,1,1-1-1-1Z"/>
    <path class="st0" d="M1199.2,660.2c-61.3-112.2-188.2-172.6-322-160-91.2,8.6-172.3,44-207.3,124.7-98,23.8-133,119.5-126.6,214s4.7,112.3,64.4,139.8c11.2,5.2,22.4,2.8,30.3-4.5,67.7-61.4,72.2-158.3,81.1-236.1,33.6,18,72.5,53.2,130.8,47.4,19.8-5,24.4-17.5,21.2-37.4-2.7-9.8-6.3-16.8-2-16,0,0,127.6,82.7,248,60.8,0,0,45.2-8.5,49.6-1.2,0,0,16.7,76.8,34,114.3s19.1,25.1,27.4,18.8,42.8-118.2-28.9-264.7Z"/>
  </g>
  <path class="st2" d="M928.2,457.1c6.5-46.9-20.2-106.8-76.2-118.7s-60.1,102.8,99.1,30.9c159.2-71.8-12.4-312.3-158.1-181.1-145.7,131.2,187.3,197,298.1,30.9S806-50.5,706.2,116c0,0-3.4,6-7.4,15.6-20.7,49.7-57.3,197.7,277.8,133,400-77.3-288.3-325.7-330.2-106.2-41.9,219.5,468.9,177.7,410,32s-391.1-175.2-382.1-22.3c9,152.9,264.4,196.6,355.2,28.1s-418-214.3-288.3-45.7c129.7,168.6,501.8,34.3,254.4-85.6-247.4-119.9-352.2,64.5-261.4,142.4s188.5,65,302.3,25-100.8-269-345.2-159.4,134.7,157.3,299.3,86.5c164.6-70.8-225.5-236.4-301.3-106.7s232.5,353.6,407,87c73.2-117.7-475.4-119.1-474.2,41.4.2,30,20.1,56.2,48.5,65.7,80.6,26.8,299.5,81.3,289.7-121.6-12-248.4-399-55.9-233.4,37.4s368.1,14.4,266.4-25.5c-101.8-39.9-288.3-50.8-270.4,79.8s404,18.9,208.5-79.8-252.4,1.5-221.5,73.1,354.2,49.3,176.6-118.6c0,0-39.6-44.2-117.4-25.6"/>
</svg>