<?xml version="1.0" encoding="UTF-8"?>
<svg id="Layer_1" data-name="Layer 1" xmlns="http://www.w3.org/2000/svg" viewBox="0 0 720.59 720.59">
  <defs>
    <style>
      .cls-1 {
        fill: #1f1b17;
      }

      .cls-2 {
        fill: #b4522f;
      }
    </style>
  </defs>
  <path class="cls-1" d="M268.83,307.57l137.61-.03,37.81-.02c6.29,0,17.77-.35,23.59.66,7.57,1.33,14.55,4.94,19.99,10.36,20.44,20.32,11.22,57.23-17.23,63.94-5.74,1.35-11.52,1.1-17.37,1.1h-139.28s-38.15.01-38.15.01c-6.96,0-17.39.59-23.8-.76-29.33-6.21-39.11-43.96-18.09-64.63,10.93-10.74,21.01-10.64,34.91-10.63Z"/>
  <path class="cls-2" d="M349.31,133.66c12-.57,19.87,3.76,30.81,8.01l28.42,10.92,44.4,17.02c7.77,2.97,16.04,5.84,23.65,9.08,11.85,5.03,20.49,17.27,22.09,30.02,1.29,10.23-1.52,20.56-7.82,28.73-7.22,9.26-16.71,13.69-28.13,15.09-13.04.31-18.52-3.08-30.36-7.65l-29.16-11.17-41.99-16.15c-9.87-3.76-27.94-9.47-35.57-15.72-7.76-6.46-12.65-15.74-13.6-25.79-2.08-22.4,15.27-40.52,37.24-42.37Z"/>
  <path class="cls-1" d="M260.31,220.13l52.63-.02c8.44-.01,18.13-.29,26.46.27,2.29.15,10.96,3.59,13.53,4.58l19.29,7.5,23.18,8.88c3.75,1.44,9.47,3.45,12.93,5.2,1.68,3.49,2.64,8.2,2.77,12.06.42,9.88-3.15,19.51-9.89,26.74-7.33,7.76-16.74,11.77-27.34,12.07-27.37-.48-56.18-.06-83.64-.05h-20.06c-14.5.02-24.37.35-35.7-10.42-15.37-14.61-15.77-40.59-1.1-55.8,7.79-8.08,15.98-10.77,26.94-11Z"/>
  <path class="cls-1" d="M116.22,577.83c-8.32-6.1-13.38-14.79-15.17-26.06l27.65-4.18c1.13,5.11,3.63,9.07,7.51,11.89,3.88,2.82,8.8,4.23,14.77,4.23,4.84,0,8.6-.94,11.29-2.84,2.69-1.89,4.03-4.53,4.03-7.91,0-2.25-.55-3.99-1.64-5.22-1.09-1.23-3.35-2.44-6.76-3.63-3.42-1.19-9.23-2.88-17.46-5.07-8.89-2.25-15.91-4.77-21.09-7.56-5.17-2.78-8.92-6.1-11.24-9.95-2.32-3.84-3.48-8.55-3.48-14.12,0-6.83,1.76-12.8,5.27-17.9,3.51-5.1,8.49-9.03,14.92-11.79,6.43-2.75,13.96-4.13,22.58-4.13s15.8,1.29,22.33,3.88c6.53,2.59,11.8,6.28,15.82,11.09,4.01,4.81,6.48,10.43,7.41,16.86l-27.65,4.97c-.47-3.98-2.19-7.13-5.17-9.45-2.98-2.32-7.03-3.68-12.13-4.08l-2.09-.1c-4.38,0-7.87.83-10.49,2.49-2.62,1.66-3.93,3.91-3.93,6.76,0,1.92.66,3.5,1.99,4.72,1.33,1.23,3.91,2.49,7.76,3.78,3.84,1.29,10.15,3.03,18.9,5.22,8.22,2.12,14.79,4.59,19.69,7.41,4.91,2.82,8.49,6.18,10.74,10.1,2.25,3.91,3.38,8.69,3.38,14.32,0,7.29-1.79,13.61-5.37,18.95-3.58,5.34-8.75,9.42-15.52,12.23-6.76,2.82-14.79,4.23-24.07,4.23-13.53,0-24.45-3.05-32.77-9.15ZM229.06,537.85c.99,7.69,3.63,13.59,7.91,17.7,4.28,4.11,10.03,6.17,17.26,6.17,5.24,0,9.76-1.16,13.58-3.48,3.81-2.32,6.71-5.67,8.7-10.05l27.05,7.76c-2.65,6.43-6.4,11.98-11.24,16.66-4.84,4.68-10.41,8.24-16.71,10.69-6.3,2.45-12.9,3.68-19.79,3.68-10.88,0-20.54-2.35-28.99-7.06-8.45-4.71-15.05-11.27-19.79-19.69-4.74-8.42-7.11-17.94-7.11-28.55,0-11.54,2.3-21.7,6.91-30.49,4.61-8.79,11.02-15.58,19.25-20.39,8.22-4.81,17.61-7.21,28.15-7.21s19.33,2.29,26.95,6.86c7.62,4.58,13.48,11.07,17.56,19.5,4.08,8.42,6.12,18.3,6.12,29.64,0,1.79-.13,4.54-.4,8.26h-75.39ZM229.75,517.75h47.34c-.93-7.23-3.13-12.48-6.61-15.76-3.48-3.28-8.5-4.92-15.07-4.92-14.26,0-22.81,6.9-25.66,20.69ZM350.3,497.46v45.06c0,3.45.13,6.23.4,8.35.26,2.12.86,3.88,1.79,5.27,2.72,4.31,8.09,6.46,16.11,6.46,3.05,0,7.29-.36,12.73-1.09v22.48c-6.9,1.26-13.33,1.89-19.3,1.89-8.09,0-15.12-1.21-21.09-3.63s-10.41-6.28-13.33-11.59c-1.79-3.32-2.98-6.7-3.58-10.15-.6-3.45-.9-7.53-.9-12.23l.1-9.85v-40.98h-18.3v-20.89h18.3v-29.84h27.05v29.84h31.03v20.89h-31.03ZM426.69,497.46v45.06c0,3.45.13,6.23.4,8.35.26,2.12.86,3.88,1.79,5.27,2.72,4.31,8.09,6.46,16.11,6.46,3.05,0,7.29-.36,12.73-1.09v22.48c-6.9,1.26-13.33,1.89-19.3,1.89-8.09,0-15.12-1.21-21.09-3.63s-10.41-6.28-13.33-11.59c-1.79-3.32-2.98-6.7-3.58-10.15-.6-3.45-.9-7.53-.9-12.23l.1-9.85v-40.98h-18.3v-20.89h18.3v-29.84h27.05v29.84h31.03v20.89h-31.03ZM500.69,584h-27.05v-146.21h27.05v146.21ZM543.75,537.85c1,7.69,3.63,13.59,7.91,17.7,4.28,4.11,10.03,6.17,17.26,6.17,5.24,0,9.76-1.16,13.58-3.48,3.81-2.32,6.71-5.67,8.7-10.05l27.05,7.76c-2.65,6.43-6.4,11.98-11.24,16.66-4.84,4.68-10.41,8.24-16.71,10.69-6.3,2.45-12.9,3.68-19.79,3.68-10.88,0-20.54-2.35-28.99-7.06-8.46-4.71-15.05-11.27-19.79-19.69-4.74-8.42-7.11-17.94-7.11-28.55,0-11.54,2.3-21.7,6.91-30.49,4.61-8.79,11.02-15.58,19.25-20.39,8.22-4.81,17.61-7.21,28.15-7.21s19.33,2.29,26.95,6.86c7.62,4.58,13.48,11.07,17.56,19.5,4.08,8.42,6.12,18.3,6.12,29.64,0,1.79-.13,4.54-.4,8.26h-75.39ZM544.45,517.75h47.34c-.93-7.23-3.13-12.48-6.61-15.76-3.48-3.28-8.5-4.92-15.07-4.92-14.26,0-22.81,6.9-25.66,20.69Z"/>
</svg>